<svg width="50" height="50" viewBox="0 0 50 50" fill="none" xmlns="http://www.w3.org/2000/svg">
<path d="M0 25C0 11.1929 11.1929 0 25 0V0C38.8071 0 50 11.1929 50 25V25C50 38.8071 38.8071 50 25 50V50C11.1929 50 0 38.8071 0 25V25Z" fill="#2D2D2D"/>
<path d="M31.3281 19.9062C31.3281 21.5729 31.0833 22.9375 30.5938 24C30.1042 25.0625 29.2865 25.8177 28.1406 26.2656L32.5156 36H29.4531L25.3438 26.7188H22.5V36H19.7188V13.5938C19.9896 13.5729 20.2656 13.5521 20.5469 13.5312C20.8281 13.5104 21.1198 13.4896 21.4219 13.4688C21.9323 13.4271 22.5104 13.401 23.1562 13.3906C23.8125 13.3802 24.4688 13.375 25.125 13.375C26.3438 13.375 27.349 13.526 28.1406 13.8281C28.9427 14.1302 29.5833 14.5729 30.0625 15.1562C30.5312 15.7292 30.8594 16.4219 31.0469 17.2344C31.2344 18.0365 31.3281 18.9271 31.3281 19.9062ZM28.4844 20.125C28.4844 18.5729 28.2708 17.4479 27.8438 16.75C27.4167 16.0417 26.6406 15.6875 25.5156 15.6875C24.6198 15.6875 23.8906 15.7188 23.3281 15.7812C23.0156 15.8229 22.7396 15.8542 22.5 15.875V24.3906H25.5156C25.9635 24.3906 26.3646 24.3333 26.7188 24.2188C27.0833 24.0938 27.401 23.875 27.6719 23.5625C28.2135 22.9583 28.4844 21.8125 28.4844 20.125Z" fill="#60C0F6"/>
</svg>
